<svg xmlns="http://www.w3.org/2000/svg" width="64" height="64" viewBox="0 0 64 64">
  <path d="M30.5 25h3v34h-3zm0 12L13 20l2-2 18 17zm1-8 17-17 2 2-17 18zm-.5-4V7h2v18z" fill="#1E1A14"/>
  <ellipse cx="14" cy="18" rx="3.5" ry="6" fill="#1E1A14" transform="rotate(-25 14 18)"/>
  <ellipse cx="50" cy="12" rx="3.5" ry="6" fill="#1E1A14" transform="rotate(20 50 12)"/>
  <ellipse cx="32" cy="7" rx="3" ry="5.5" fill="#1E1A14"/>
  <ellipse cx="22" cy="27" rx="2.2" ry="3.8" fill="#1E1A14" transform="rotate(-18 22 27)"/>
  <ellipse cx="42" cy="21" rx="2.2" ry="3.8" fill="#1E1A14" transform="rotate(15 42 21)"/>
</svg>
