<svg xmlns="http://www.w3.org/2000/svg" width="64" height="64" viewBox="0 0 64 64" fill="none">
  <path d="m12 14-6 12h12l-6-12Z" fill="#1E1A14"/>
  <rect x="9" y="26" width="5" height="34" rx="1" fill="#1E1A14"/>
  <ellipse cx="11.5" cy="34" rx="2" ry=".9" fill="#EBE2CC"/><ellipse cx="11.5" cy="44" rx="2" ry=".9" fill="#EBE2CC"/><ellipse cx="11.5" cy="54" rx="2" ry=".9" fill="#EBE2CC"/>
  <path d="m32 5-8 15h16L32 5Z" fill="#1E1A14"/>
  <rect x="29" y="20" width="6" height="40" rx="1" fill="#1E1A14"/>
  <ellipse cx="32" cy="30" rx="2.5" ry="1" fill="#EBE2CC"/><ellipse cx="32" cy="41" rx="2.5" ry="1" fill="#EBE2CC"/><ellipse cx="32" cy="52" rx="2.5" ry="1" fill="#EBE2CC"/>
  <path d="m52 10-7 14h14L52 10Z" fill="#1E1A14"/>
  <rect x="49" y="24" width="5" height="36" rx="1" fill="#1E1A14"/>
  <ellipse cx="51.5" cy="33" rx="2" ry=".9" fill="#EBE2CC"/><ellipse cx="51.5" cy="43" rx="2" ry=".9" fill="#EBE2CC"/><ellipse cx="51.5" cy="53" rx="2" ry=".9" fill="#EBE2CC"/>
</svg>
