<svg xmlns="http://www.w3.org/2000/svg" width="64" height="64" viewBox="0 0 64 64">
  <rect x="30.5" y="8" width="3" height="19" rx="1" fill="#1E1A14"/>
  <path d="M31 20.5C24 24 15 29 8.8 39.3l2.4 1.4C17 31.4 25 27 33 23.5Z" fill="#1E1A14"/>
  <path d="M31 23.5c8 3.5 16 7.9 21.8 17.2l2.4-1.4C49 29 40 24 33 20.5Z" fill="#1E1A14"/>
  <path d="M17.2 31.8c-4.1 5.4-7.3 12.3-8.6 20.9l2.8.5c1.2-8.1 4.1-14.5 8-19.6Z" fill="#1E1A14"/>
  <path d="M46.8 31.8c4.1 5.4 7.3 12.3 8.6 20.9l-2.8.5c-1.2-8.1-4.1-14.5-8-19.6Z" fill="#1E1A14"/>
  <path d="M30.8 25.7c-2.2 8.5-4.3 18-6.1 28.9l2.7.5c1.8-10.8 3.8-20.2 6-28.6Z" fill="#1E1A14"/>
  <path d="M33.2 25.7c2.2 8.5 4.3 18 6.1 28.9l-2.7.5c-1.8-10.8-3.8-20.2-6-28.6Z" fill="#1E1A14"/>
  <circle cx="10" cy="53" r="2.5" fill="#1E1A14"/>
  <circle cx="54" cy="53" r="2.5" fill="#1E1A14"/>
  <circle cx="26" cy="55" r="2" fill="#1E1A14"/>
  <circle cx="38" cy="55" r="2" fill="#1E1A14"/>
</svg>
