<svg xmlns="http://www.w3.org/2000/svg" width="24" height="24" viewBox="0 0 24 24" fill="none" stroke="currentColor" stroke-width="1.8" stroke-linecap="round" stroke-linejoin="round">
  <path d="M8.5 3v4"/>
  <path d="M5.5 3v4"/>
  <path d="M4 7h6v2.2c0 1.7-1.3 3-3 3s-3-1.3-3-3V7Z"/>
  <path d="M7 12.2v2.3c0 1.4 1.1 2.5 2.5 2.5H12"/>
  <path d="M15.5 21v-4"/>
  <path d="M18.5 21v-4"/>
  <path d="M20 17h-6v-2.2c0-1.7 1.3-3 3-3s3 1.3 3 3V17Z"/>
  <path d="M17 11.8V9.5C17 8.1 15.9 7 14.5 7H12"/>
  <path d="M12 5v14"/>
  <path d="M10 9h4"/>
</svg>
